<?xml version="1.0" encoding="utf-8"?>
<!-- Generator: Adobe Illustrator 19.0.0, SVG Export Plug-In . SVG Version: 6.00 Build 0)  -->
<svg version="1.1" id="Layer_1" xmlns="http://www.w3.org/2000/svg" xmlns:xlink="http://www.w3.org/1999/xlink" x="0px" y="0px"
	 viewBox="0 0 64.5 59.3" style="enable-background:new 0 0 64.5 59.3;" xml:space="preserve">
<style type="text/css">
	.st0{opacity:0.5;fill:#FFFFFF;}
	.st1{fill:#FFFFFF;}
</style>
<path id="XMLID_69_" class="st0" d="M45.2,40.7l-8.5-5c-0.5-0.3-0.8-0.8-0.8-1.4v-0.3c0-0.2,0-0.3,0.1-0.5H42c0.4,0,0.7-0.2,0.8-0.5
	c0.1-0.3,0.1-0.7-0.2-1c-0.5-0.6-1.8-2.6-2.3-8.9v-2.9c0-0.7-0.1-1.4-0.3-2c0,0,0,0,0-0.1c-0.7-2.5-2.8-4.2-5.9-5
	c-0.9-0.2-1.9-0.4-2.8-0.4c-0.9,0-1.9,0.1-2.8,0.4c-3,0.8-5.1,2.5-5.9,4.9c-0.1,0.1-0.1,0.2-0.1,0.3c-0.2,0.6-0.2,1.2-0.2,1.9v2.7
	c-0.6,6.5-1.8,8.5-2.4,9.1c-0.2,0.3-0.3,0.6-0.2,1c0.1,0.3,0.5,0.5,0.8,0.5h6.1c0,0.2,0.1,0.3,0.1,0.5v0.3c0,0.6-0.3,1.1-0.8,1.4
	l-8.5,4.9c-0.9,0.5-1.5,1.5-1.5,2.6v3.1c0,0.7,0.6,1.3,1.3,1.3h28.2c0.7,0,1.3-0.6,1.3-1.3l0-3C46.7,42.2,46.2,41.2,45.2,40.7z
	 M45.3,46.2h-28v-3c0-0.6,0.3-1.1,0.8-1.4l8.5-4.9c0.9-0.5,1.5-1.5,1.5-2.6v-0.3c0-0.5-0.2-1.1-0.4-1.6c-0.2-0.3-0.5-0.4-0.9-0.3
	l0,0h-5.4c0.8-1.4,1.7-4,2.2-9.2c0,0,0,0,0-0.1v-2.7c0-0.6,0.1-1.1,0.2-1.6c0,0,0,0,0,0c0,0,0,0,0,0c0.7-2.6,3.1-3.7,5-4.1
	c0.8-0.2,1.7-0.3,2.5-0.3c0.8,0,1.7,0.1,2.5,0.3c1.9,0.5,4.2,1.6,4.9,4.1c0,0,0,0,0,0c0.2,0.5,0.2,1.1,0.2,1.7V23c0,0,0,0,0,0.1
	c0.4,5,1.3,7.6,2.1,9l-5.7,0c-0.2,0-0.5,0.1-0.6,0.3c-0.3,0.5-0.4,1-0.4,1.5v0.3c0,1.1,0.6,2.1,1.5,2.6l8.5,5
	c0.5,0.3,0.8,0.9,0.8,1.4L45.3,46.2z"/>
<path id="XMLID_306_" class="st0" d="M45.2,40.7l-8.5-5c-0.5-0.3-0.8-0.8-0.8-1.4v-0.3c0-0.5,0.3-1,0.7-1.4c2.4-1.7,3.8-4.4,3.8-7.4
	v-5.1c0-3.5-2.3-6.1-6.2-7.1c-0.9-0.2-1.9-0.4-2.8-0.4c-0.9,0-1.9,0.1-2.8,0.4c-3.9,1-6.2,3.6-6.2,7.1v5.1c0,2.9,1.4,5.7,3.8,7.4
	c0.4,0.3,0.7,0.8,0.7,1.4v0.3c0,0.6-0.3,1.1-0.8,1.4l-8.5,4.9c-0.9,0.5-1.5,1.5-1.5,2.6v3.1c0,0.7,0.6,1.3,1.3,1.3h28.2
	c0.7,0,1.3-0.6,1.3-1.3l0-3C46.7,42.2,46.2,41.2,45.2,40.7z M45.3,46.2h-28v-3c0-0.6,0.3-1.1,0.8-1.4l8.5-4.9
	c0.9-0.5,1.5-1.5,1.5-2.6v-0.3c0-1-0.5-1.9-1.3-2.5c-2-1.4-3.2-3.8-3.2-6.2v-5.1c0-3.9,3.2-5.3,5.2-5.8c0.8-0.2,1.7-0.3,2.5-0.3
	c0.8,0,1.7,0.1,2.5,0.3c1.9,0.5,5.2,1.9,5.2,5.8v5.1c0,2.5-1.2,4.8-3.2,6.2c-0.8,0.6-1.3,1.5-1.3,2.5v0.3c0,1.1,0.6,2.1,1.5,2.6
	l8.5,5c0.5,0.3,0.8,0.9,0.8,1.4L45.3,46.2z"/>
<path id="XMLID_53_" class="st1" d="M38.9,47.2H23.8V44h15.2V47.2z M24.8,46.2h13.2V45H24.8V46.2z"/>
<g id="XMLID_296_">
	<rect id="XMLID_287_" x="27.1" y="20" class="st1" width="1.7" height="1.7"/>
	<rect id="XMLID_288_" x="34" y="20" class="st1" width="1.7" height="1.7"/>
</g>
<g id="XMLID_50_">
	<line id="XMLID_48_" class="st1" x1="31.3" y1="12.6" x2="31.4" y2="8.8"/>
	
		<rect id="XMLID_49_" x="30.9" y="8.8" transform="matrix(0.9998 2.050350e-02 -2.050350e-02 0.9998 0.2254 -0.6408)" class="st1" width="1" height="3.8"/>
</g>
<g id="XMLID_47_">
	<circle id="XMLID_43_" class="st1" cx="31.4" cy="9.6" r="1.2"/>
	<path id="XMLID_44_" class="st1" d="M31.4,11.3c-0.9,0-1.7-0.7-1.7-1.7s0.7-1.7,1.7-1.7S33,8.7,33,9.6S32.3,11.3,31.4,11.3z
		 M31.4,8.9c-0.4,0-0.7,0.3-0.7,0.7s0.3,0.7,0.7,0.7S32,10,32,9.6S31.7,8.9,31.4,8.9z"/>
</g>
<g id="XMLID_42_">
	<line id="XMLID_40_" class="st1" x1="22.7" y1="24.4" x2="17.9" y2="24.4"/>
	
		<rect id="XMLID_41_" x="17.9" y="23.9" transform="matrix(0.9999 1.606989e-02 -1.606989e-02 0.9999 0.3948 -0.3225)" class="st1" width="4.8" height="1"/>
</g>
<g id="XMLID_39_">
	<circle id="XMLID_35_" class="st1" cx="18.7" cy="24.4" r="1.2"/>
	<path id="XMLID_36_" class="st1" d="M18.7,26.1c-0.9,0-1.7-0.7-1.7-1.7s0.7-1.7,1.7-1.7s1.7,0.7,1.7,1.7S19.6,26.1,18.7,26.1z
		 M18.7,23.7c-0.4,0-0.7,0.3-0.7,0.7s0.3,0.7,0.7,0.7s0.7-0.3,0.7-0.7S19.1,23.7,18.7,23.7z"/>
</g>
<g id="XMLID_34_">
	<line id="XMLID_32_" class="st1" x1="39.6" y1="24.3" x2="44.4" y2="24.4"/>
	
		<rect id="XMLID_33_" x="39.6" y="23.9" transform="matrix(0.9999 1.607152e-02 -1.607152e-02 0.9999 0.397 -0.6722)" class="st1" width="4.8" height="1"/>
</g>
<g id="XMLID_31_">
	<circle id="XMLID_22_" class="st1" cx="43.6" cy="24.4" r="1.2"/>
	<path id="XMLID_23_" class="st1" d="M43.6,26c-0.9,0-1.7-0.7-1.7-1.7s0.7-1.7,1.7-1.7s1.7,0.7,1.7,1.7S44.5,26,43.6,26z M43.6,23.7
		c-0.4,0-0.7,0.3-0.7,0.7s0.3,0.7,0.7,0.7s0.7-0.3,0.7-0.7S44,23.7,43.6,23.7z"/>
</g>
<rect id="XMLID_52_" x="27.9" y="26" class="st1" width="6.9" height="1.2"/>
</svg>
