<?xml version="1.0" encoding="utf-8"?>
<!-- Generator: Adobe Illustrator 19.0.0, SVG Export Plug-In . SVG Version: 6.00 Build 0)  -->
<svg version="1.1" id="Layer_1" xmlns="http://www.w3.org/2000/svg" xmlns:xlink="http://www.w3.org/1999/xlink" x="0px" y="0px"
	 viewBox="-265 391.6 64.5 59.3" style="enable-background:new -265 391.6 64.5 59.3;" xml:space="preserve">
<style type="text/css">
	.st0{opacity:0.5;fill:#3C3C3B;enable-background:new    ;}
	.st1{fill:#6B6C6C;}
	.st2{fill:none;stroke:#726F6E;stroke-miterlimit:10;}
	.st3{fill:#726F6E;stroke:#726F6E;stroke-miterlimit:10;}
</style>
<path id="XMLID_69_" class="st0" d="M-219.8,432.3l-8.5-5c-0.5-0.3-0.8-0.8-0.8-1.4v-0.3c0-0.2,0-0.3,0.1-0.5h6
	c0.4,0,0.7-0.2,0.8-0.5c0.1-0.3,0.1-0.7-0.2-1c-0.5-0.6-1.8-2.6-2.3-8.9v-2.9c0-0.7-0.1-1.4-0.3-2c0,0,0,0,0-0.1
	c-0.7-2.5-2.8-4.2-5.9-5c-0.9-0.2-1.9-0.4-2.8-0.4c-0.9,0-1.9,0.1-2.8,0.4c-3,0.8-5.1,2.5-5.9,4.9c-0.1,0.1-0.1,0.2-0.1,0.3
	c-0.2,0.6-0.2,1.2-0.2,1.9v2.7c-0.6,6.5-1.8,8.5-2.4,9.1c-0.2,0.3-0.3,0.6-0.2,1c0.1,0.3,0.5,0.5,0.8,0.5h6.1c0,0.2,0.1,0.3,0.1,0.5
	v0.3c0,0.6-0.3,1.1-0.8,1.4l-8.5,4.9c-0.9,0.5-1.5,1.5-1.5,2.6v3.1c0,0.7,0.6,1.3,1.3,1.3h28.2c0.7,0,1.3-0.6,1.3-1.3v-3
	C-218.3,433.8-218.8,432.8-219.8,432.3z M-219.7,437.8h-28v-3c0-0.6,0.3-1.1,0.8-1.4l8.5-4.9c0.9-0.5,1.5-1.5,1.5-2.6v-0.3
	c0-0.5-0.2-1.1-0.4-1.6c-0.2-0.3-0.5-0.4-0.9-0.3l0,0h-5.4c0.8-1.4,1.7-4,2.2-9.2c0,0,0,0,0-0.1v-2.7c0-0.6,0.1-1.1,0.2-1.6l0,0l0,0
	c0.7-2.6,3.1-3.7,5-4.1c0.8-0.2,1.7-0.3,2.5-0.3s1.7,0.1,2.5,0.3c1.9,0.5,4.2,1.6,4.9,4.1l0,0c0.2,0.5,0.2,1.1,0.2,1.7v2.8
	c0,0,0,0,0,0.1c0.4,5,1.3,7.6,2.1,9h-5.7c-0.2,0-0.5,0.1-0.6,0.3c-0.3,0.5-0.4,1-0.4,1.5v0.3c0,1.1,0.6,2.1,1.5,2.6l8.5,5
	c0.5,0.3,0.8,0.9,0.8,1.4L-219.7,437.8z"/>
<path id="XMLID_306_" class="st0" d="M-219.8,432.3l-8.5-5c-0.5-0.3-0.8-0.8-0.8-1.4v-0.3c0-0.5,0.3-1,0.7-1.4
	c2.4-1.7,3.8-4.4,3.8-7.4v-5.1c0-3.5-2.3-6.1-6.2-7.1c-0.9-0.2-1.9-0.4-2.8-0.4c-0.9,0-1.9,0.1-2.8,0.4c-3.9,1-6.2,3.6-6.2,7.1v5.1
	c0,2.9,1.4,5.7,3.8,7.4c0.4,0.3,0.7,0.8,0.7,1.4v0.3c0,0.6-0.3,1.1-0.8,1.4l-8.5,4.9c-0.9,0.5-1.5,1.5-1.5,2.6v3.1
	c0,0.7,0.6,1.3,1.3,1.3h28.2c0.7,0,1.3-0.6,1.3-1.3v-3C-218.3,433.8-218.8,432.8-219.8,432.3z M-219.7,437.8h-28v-3
	c0-0.6,0.3-1.1,0.8-1.4l8.5-4.9c0.9-0.5,1.5-1.5,1.5-2.6v-0.3c0-1-0.5-1.9-1.3-2.5c-2-1.4-3.2-3.8-3.2-6.2v-5.1
	c0-3.9,3.2-5.3,5.2-5.8c0.8-0.2,1.7-0.3,2.5-0.3s1.7,0.1,2.5,0.3c1.9,0.5,5.2,1.9,5.2,5.8v5.1c0,2.5-1.2,4.8-3.2,6.2
	c-0.8,0.6-1.3,1.5-1.3,2.5v0.3c0,1.1,0.6,2.1,1.5,2.6l8.5,5c0.5,0.3,0.8,0.9,0.8,1.4V437.8z"/>
<path class="st1" d="M-226,438.8h-15.2v-3.2h15.2V438.8z M-240.2,437.8h13.2v-1.2h-13.2V437.8z"/>
<g id="XMLID_296_">
	<rect id="XMLID_287_" x="-237.9" y="411.6" class="st1" width="1.7" height="1.7"/>
	<rect id="XMLID_288_" x="-231" y="411.6" class="st1" width="1.7" height="1.7"/>
</g>
<line id="XMLID_289_" class="st2" x1="-233.7" y1="405.2" x2="-233.6" y2="401.4"/>
<circle id="XMLID_290_" class="st3" cx="-233.6" cy="401.2" r="1.2"/>
<line id="XMLID_292_" class="st2" x1="-242.3" y1="416" x2="-247.1" y2="416"/>
<circle id="XMLID_291_" class="st3" cx="-246.3" cy="416" r="1.2"/>
<line id="XMLID_294_" class="st2" x1="-225.4" y1="415.9" x2="-220.6" y2="416"/>
<circle id="XMLID_293_" class="st3" cx="-221.4" cy="415.9" r="1.2"/>
<rect x="-237.1" y="417.6" class="st1" width="7" height="1.2"/>
</svg>
