<?xml version="1.0" encoding="utf-8"?>
<!-- Generator: Adobe Illustrator 19.0.0, SVG Export Plug-In . SVG Version: 6.00 Build 0)  -->
<svg version="1.1" id="Layer_1" xmlns="http://www.w3.org/2000/svg" xmlns:xlink="http://www.w3.org/1999/xlink" x="0px" y="0px"
	 viewBox="0 0 64.5 59.3" style="enable-background:new 0 0 64.5 59.3;" xml:space="preserve">
<style type="text/css">
	.st0{fill:#6F6E6E;}
</style>
<g id="XMLID_39_">
	<path id="XMLID_62_" class="st0" d="M55.1,32.6l-6.7-4c-0.4-0.2-0.6-0.7-0.6-1.1v-0.3c0-0.4,0.2-0.8,0.6-1.1c1.9-1.3,3-3.5,3-5.8
		v-4c0-2.8-1.8-4.8-4.9-5.6c-0.7-0.2-1.5-0.3-2.2-0.3c-0.7,0-1.5,0.1-2.2,0.3c-2.2,0.6-3.8,1.8-4.5,3.5c0.4,0.1,0.7,0.2,1,0.3
		c0.8-1.7,2.5-2.5,3.7-2.8c0.6-0.2,1.3-0.3,1.9-0.3c0.6,0,1.3,0.1,1.9,0.2c1.5,0.4,4.1,1.5,4.1,4.6v4c0,1.9-0.9,3.8-2.5,4.9
		c-0.6,0.4-1,1.2-1,1.9v0.3c0,0.8,0.4,1.6,1.2,2.1l6.7,4c0.4,0.2,0.6,0.7,0.6,1.1l0,2.3H39.8l1.8,1.1h13.6c0.5,0,1-0.4,1-1l0-2.4
		C56.2,33.8,55.8,33,55.1,32.6z"/>
	<path id="XMLID_22_" class="st0" d="M24.6,13.5c-0.8-0.2-1.7-0.3-2.5-0.3c-0.8,0-1.7,0.1-2.5,0.3C16,14.4,14,16.7,14,19.9v4.6
		c0,2.6,1.3,5.1,3.4,6.6c0.4,0.3,0.6,0.7,0.6,1.2v0.3c0,0.5-0.3,1-0.7,1.3l-7.6,4.4c-0.8,0.5-1.4,1.4-1.4,2.4v2.8
		c0,0.6,0.5,1.1,1.1,1.1h7.7v-0.1c0-0.4,0.1-0.8,0.2-1.1h-6.8h-1v-2.7c0-0.5,0.3-1,0.7-1.3l7.6-4.4c0.8-0.5,1.4-1.4,1.4-2.4v-0.3
		c0-0.9-0.4-1.7-1.2-2.2c-1.8-1.3-2.9-3.4-2.9-5.6v-4.6c0-3.5,2.9-4.8,4.6-5.2c0.7-0.2,1.5-0.3,2.2-0.3c0.2,0,0.3,0,0.5,0
		c0.6,0,1.1,0.1,1.7,0.3c0.6,0.2,1.4,0.4,2.2,0.9c0.2-0.1,0.3-0.2,0.5-0.3c0.2-0.1,0.4-0.3,0.7-0.4C26.8,14.3,25.8,13.8,24.6,13.5z"
		/>
	<path id="XMLID_52_" class="st0" d="M47.3,41.9L40.6,38l-1.8-1.1l0,0c-0.5-0.3-0.8-0.8-0.8-1.4v-0.3c0-0.2,0-0.3,0.1-0.5h6.1
		c0.4,0,0.7-0.2,0.8-0.5c0.1-0.3,0.1-0.7-0.2-1c-0.5-0.6-1.8-2.6-2.3-8.9v-2.9c0-0.7-0.1-1.4-0.3-2c0,0,0,0,0-0.1
		c-0.6-2.1-2.3-3.7-4.7-4.6c-0.3-0.1-0.7-0.2-1-0.3c-0.1,0-0.1,0-0.2-0.1c-0.9-0.2-1.9-0.4-2.8-0.4c-0.9,0-1.9,0.1-2.8,0.4
		c-0.7,0.2-1.4,0.4-2,0.7c-0.4,0.2-0.8,0.4-1.2,0.7c-1.3,0.9-2.3,2.1-2.7,3.5c-0.1,0.1-0.1,0.2-0.1,0.3c-0.2,0.6-0.2,1.2-0.2,1.9
		v2.7c-0.6,6.5-1.8,8.5-2.4,9.1c-0.2,0.3-0.3,0.6-0.2,1c0.1,0.3,0.5,0.5,0.8,0.5H27h1.9c0,0.2,0.1,0.3,0.1,0.5v0.3
		c0,0.1,0,0.3-0.1,0.4c-0.1,0.4-0.4,0.8-0.8,1l-8.5,4.9c-0.6,0.3-1,0.9-1.3,1.5c-0.1,0.4-0.2,0.7-0.2,1.1v0.1v3
		c0,0.7,0.6,1.3,1.3,1.3h28.2c0.7,0,1.3-0.6,1.3-1.3l0-3C48.8,43.5,48.3,42.5,47.3,41.9z M47.4,47.5h-28v-2.9v-0.1
		c0-0.4,0.2-0.8,0.5-1.1c0.1-0.1,0.2-0.2,0.4-0.3l8.5-4.9c0.6-0.3,1-0.9,1.3-1.5c0.1-0.4,0.2-0.7,0.2-1.1v-0.2v-0.1
		c0-0.5-0.2-1.1-0.4-1.6c-0.2-0.3-0.5-0.4-0.9-0.3l0,0h-1.7H26h-2.4c0.8-1.4,1.7-4,2.2-9.2c0,0,0,0,0-0.1v-2.7
		c0-0.6,0.1-1.1,0.2-1.6c0,0,0,0,0,0c0,0,0,0,0,0c0.4-1.5,1.5-2.5,2.6-3.2c0.4-0.2,0.8-0.4,1.1-0.6c0.4-0.2,0.8-0.3,1.2-0.4
		c0.8-0.2,1.7-0.3,2.5-0.3c0.8,0,1.7,0.1,2.5,0.3c0.1,0,0.1,0,0.2,0.1c0.3,0.1,0.7,0.2,1,0.3c1.5,0.6,3.1,1.7,3.7,3.7c0,0,0,0,0,0
		c0.2,0.5,0.2,1.1,0.2,1.7v2.9c0,0,0,0,0,0.1c0.4,5,1.3,7.6,2.1,9l-5.7,0c-0.2,0-0.5,0.1-0.6,0.3c-0.3,0.5-0.4,1-0.4,1.5v0.3
		c0,0.5,0.1,1,0.4,1.4c0.2,0.4,0.6,0.8,1,1.1c0,0,0.1,0.1,0.1,0.1l8.5,5c0.5,0.3,0.8,0.9,0.8,1.4L47.4,47.5z"/>
</g>
</svg>
