<?xml version="1.0" encoding="utf-8"?>
<!-- Generator: Adobe Illustrator 19.0.0, SVG Export Plug-In . SVG Version: 6.00 Build 0)  -->
<svg version="1.1" id="Layer_1" xmlns="http://www.w3.org/2000/svg" xmlns:xlink="http://www.w3.org/1999/xlink" x="0px" y="0px"
	 viewBox="0 0 109.4 18.6" style="enable-background:new 0 0 109.4 18.6;" xml:space="preserve">
<style type="text/css">
	.st0{fill:#FFFFFF;}
	.st1{fill:#97C452;}
</style>
<g id="XMLID_1_">
	<path id="XMLID_2_" class="st0" d="M9.4,15.4c-0.2,0.5-0.5,0.9-0.9,1.3s-0.8,0.7-1.3,0.9S6.2,18,5.6,18H4.4c-0.6,0-1.1-0.1-1.6-0.3
		s-0.9-0.5-1.3-0.9s-0.7-0.8-0.9-1.3s-0.3-1-0.3-1.6v-9c0-0.6,0.1-1.1,0.3-1.6s0.5-0.9,0.9-1.3S2.3,1.2,2.8,1s1-0.3,1.6-0.3h1.2
		c0.6,0,1.1,0.1,1.6,0.3s0.9,0.5,1.3,0.9s0.7,0.8,0.9,1.3s0.3,1,0.3,1.6v0.7L8.2,5.7V4.8c0-0.4-0.1-0.7-0.2-1S7.7,3.2,7.4,2.9
		S6.9,2.5,6.6,2.3s-0.7-0.2-1-0.2H4.5c-0.4,0-0.7,0.1-1,0.2S2.8,2.7,2.6,2.9S2.1,3.4,2,3.8s-0.2,0.7-0.2,1v9c0,0.4,0.1,0.7,0.2,1
		s0.3,0.6,0.6,0.9s0.5,0.4,0.9,0.6s0.7,0.2,1,0.2h1.1c0.4,0,0.7-0.1,1-0.2s0.6-0.3,0.8-0.6s0.4-0.5,0.6-0.9s0.2-0.7,0.2-1v-0.9
		l1.5,0.2v0.7C9.7,14.4,9.6,14.9,9.4,15.4z"/>
	<path id="XMLID_4_" class="st0" d="M20.4,15.8c-0.2,0.4-0.4,0.8-0.8,1.1s-0.7,0.6-1.1,0.8S17.6,18,17.1,18h-1
		c-0.5,0-0.9-0.1-1.4-0.3s-0.8-0.4-1.1-0.8s-0.6-0.7-0.8-1.1s-0.3-0.9-0.3-1.4V9c0-0.5,0.1-0.9,0.3-1.4s0.4-0.8,0.8-1.1
		C14,6.2,14.3,6,14.8,5.8s0.9-0.3,1.4-0.3h1c0.5,0,0.9,0.1,1.4,0.3s0.8,0.4,1.1,0.8c0.3,0.3,0.6,0.7,0.8,1.1s0.3,0.9,0.3,1.4v5.4
		C20.6,14.9,20.5,15.4,20.4,15.8z M19.2,8.9c0-0.3-0.1-0.6-0.2-0.8s-0.3-0.5-0.4-0.7S18.2,7.1,17.9,7s-0.5-0.2-0.8-0.2h-1
		c-0.3,0-0.6,0.1-0.8,0.2s-0.5,0.3-0.7,0.4s-0.3,0.4-0.4,0.7s-0.2,0.5-0.2,0.8v5.6c0,0.3,0.1,0.6,0.2,0.8s0.3,0.5,0.4,0.7
		s0.4,0.3,0.7,0.4s0.5,0.2,0.8,0.2h1c0.3,0,0.6-0.1,0.8-0.2s0.5-0.3,0.7-0.4s0.3-0.4,0.4-0.7s0.2-0.5,0.2-0.8V8.9z"/>
	<path id="XMLID_7_" class="st0" d="M30.1,17.7V8.9c0-0.3-0.1-0.6-0.2-0.8s-0.3-0.5-0.4-0.7S29.1,7.1,28.8,7S28.3,6.9,28,6.9h-1
		c-0.3,0-0.6,0.1-0.8,0.2s-0.5,0.3-0.7,0.4s-0.3,0.4-0.4,0.7S25,8.6,25,8.9v8.8h-1.4v-12H24l0.8,1.2c0.3-0.4,0.7-0.8,1.2-1.1
		s1-0.4,1.6-0.4H28c0.5,0,0.9,0.1,1.4,0.3s0.8,0.4,1.1,0.8c0.3,0.3,0.6,0.7,0.8,1.1s0.3,0.9,0.3,1.4v8.7H30.1z"/>
	<path id="XMLID_9_" class="st0" d="M42.7,14.7c0,0.5-0.1,0.9-0.3,1.3s-0.5,0.7-0.8,1s-0.7,0.5-1.2,0.7S39.5,18,39,18h-1
		c-0.5,0-0.9-0.1-1.4-0.3s-0.8-0.4-1.2-0.8s-0.6-0.7-0.8-1.1s-0.3-0.9-0.3-1.4V14l1.4-0.2v0.8c0,0.3,0.1,0.6,0.2,0.8
		s0.3,0.5,0.5,0.7s0.4,0.3,0.7,0.4s0.5,0.2,0.8,0.2h1c0.3,0,0.6,0,0.8-0.1s0.5-0.2,0.7-0.4s0.4-0.4,0.5-0.6s0.2-0.5,0.2-0.8
		c0-0.4-0.1-0.8-0.3-1.1s-0.4-0.5-0.7-0.7s-0.7-0.3-1.1-0.5s-0.8-0.2-1.2-0.4s-0.8-0.3-1.2-0.4s-0.7-0.4-1.1-0.6s-0.6-0.6-0.7-1
		s-0.3-0.9-0.3-1.4c0-0.5,0.1-0.9,0.3-1.3s0.4-0.7,0.8-1s0.7-0.5,1.1-0.7s0.9-0.2,1.4-0.2H39c0.5,0,0.9,0.1,1.4,0.3s0.8,0.4,1.1,0.8
		c0.3,0.3,0.6,0.7,0.8,1.1s0.3,0.9,0.3,1.4v0l-1.4,0.2V8.9c0-0.3-0.1-0.6-0.2-0.8s-0.3-0.5-0.4-0.7S40.1,7.1,39.8,7S39.3,6.9,39,6.9
		h-0.8c-0.3,0-0.6,0-0.8,0.1s-0.5,0.2-0.7,0.4s-0.3,0.4-0.4,0.6s-0.2,0.5-0.2,0.8c0,0.4,0.1,0.8,0.3,1s0.4,0.5,0.7,0.7
		s0.7,0.3,1.1,0.5s0.8,0.2,1.2,0.4s0.8,0.3,1.2,0.4s0.7,0.4,1.1,0.6s0.6,0.6,0.7,1S42.7,14.1,42.7,14.7z"/>
	<path id="XMLID_11_" class="st0" d="M53.2,15.8c-0.2,0.4-0.4,0.8-0.8,1.1s-0.7,0.6-1.1,0.8S50.4,18,49.9,18h-1
		c-0.5,0-0.9-0.1-1.4-0.3s-0.8-0.4-1.1-0.8s-0.6-0.7-0.8-1.1s-0.3-0.9-0.3-1.4V9c0-0.5,0.1-0.9,0.3-1.4s0.4-0.8,0.8-1.1
		c0.3-0.3,0.7-0.6,1.1-0.8s0.9-0.3,1.4-0.3h1c0.5,0,0.9,0.1,1.4,0.3s0.8,0.4,1.1,0.8c0.3,0.3,0.6,0.7,0.8,1.1s0.3,0.9,0.3,1.4v2.8
		h-6.6v2.7c0,0.3,0.1,0.6,0.2,0.8s0.3,0.5,0.4,0.7s0.4,0.3,0.7,0.4s0.5,0.2,0.8,0.2h1c0.3,0,0.6-0.1,0.8-0.2s0.5-0.3,0.7-0.4
		s0.3-0.4,0.4-0.7s0.2-0.5,0.2-0.8v-0.8l1.4,0.2v0.5C53.5,14.9,53.4,15.4,53.2,15.8z M52,8.9c0-0.3-0.1-0.6-0.2-0.8
		s-0.3-0.5-0.4-0.7S51,7.1,50.7,7s-0.5-0.2-0.8-0.2h-1c-0.3,0-0.6,0.1-0.8,0.2s-0.5,0.3-0.7,0.4S47.2,7.9,47,8.1s-0.2,0.5-0.2,0.8
		v1.8H52V8.9z"/>
	<path id="XMLID_14_" class="st0" d="M62.9,17.7V8.9c0-0.3-0.1-0.6-0.2-0.8s-0.3-0.5-0.4-0.7S61.9,7.1,61.6,7s-0.5-0.2-0.8-0.2h-1
		c-0.3,0-0.6,0.1-0.8,0.2s-0.5,0.3-0.7,0.4S58,7.9,57.9,8.1s-0.2,0.5-0.2,0.8v8.8h-1.4v-12h0.5l0.8,1.2c0.3-0.4,0.7-0.8,1.2-1.1
		s1-0.4,1.6-0.4h0.4c0.5,0,0.9,0.1,1.4,0.3s0.8,0.4,1.1,0.8c0.3,0.3,0.6,0.7,0.8,1.1c0.2,0.4,0.3,0.9,0.3,1.4v8.7H62.9z"/>
	<path id="XMLID_16_" class="st0" d="M71.6,17.7c-0.4,0-0.8-0.1-1.2-0.2s-0.7-0.4-1-0.7s-0.5-0.6-0.7-1s-0.3-0.8-0.3-1.2V7.1h-2.2
		V5.7h2.2V2.8l1.4-0.2v3.1h3v1.4h-3v7.5c0,0.2,0,0.5,0.1,0.7s0.2,0.4,0.4,0.5s0.3,0.3,0.6,0.4s0.4,0.1,0.7,0.1h1.3v1.4H71.6z"/>
	<path id="XMLID_18_" class="st0" d="M75.9,2.8V0.9h1.7v1.9H75.9z M76,17.7v-12h1.4v12H76z"/>
	<path id="XMLID_21_" class="st0" d="M85,2.3c-0.2,0-0.5,0-0.7,0.1s-0.4,0.2-0.5,0.4s-0.3,0.3-0.4,0.6S83.3,3.8,83.3,4v1.7h2.8v1.4
		h-2.8v10.6h-1.4V7.1h-2.2V5.7h2.2V4.1c0-0.4,0.1-0.8,0.2-1.2s0.4-0.7,0.7-1s0.6-0.5,1-0.7s0.8-0.2,1.2-0.2h1.3v1.4H85z"/>
	<path id="XMLID_23_" class="st0" d="M88.1,2.8V0.9h1.7v1.9H88.1z M88.2,17.7v-12h1.4v12H88.2z"/>
	<path id="XMLID_26_" class="st0" d="M100.8,15.8c-0.2,0.4-0.4,0.8-0.8,1.1s-0.7,0.6-1.1,0.8S98,18,97.5,18h-1
		c-0.5,0-0.9-0.1-1.4-0.3s-0.8-0.4-1.1-0.8s-0.6-0.7-0.8-1.1S93,14.9,93,14.4V9c0-0.5,0.1-0.9,0.3-1.4s0.4-0.8,0.8-1.1
		c0.3-0.3,0.7-0.6,1.1-0.8s0.9-0.3,1.4-0.3h1c0.5,0,0.9,0.1,1.4,0.3s0.8,0.4,1.1,0.8c0.3,0.3,0.6,0.7,0.8,1.1S101,8.5,101,9v2.8
		h-6.6v2.7c0,0.3,0.1,0.6,0.2,0.8s0.3,0.5,0.4,0.7s0.4,0.3,0.7,0.4s0.5,0.2,0.8,0.2h1c0.3,0,0.6-0.1,0.8-0.2s0.5-0.3,0.7-0.4
		s0.3-0.4,0.4-0.7s0.2-0.5,0.2-0.8v-0.8L101,14v0.5C101,14.9,100.9,15.4,100.8,15.8z M99.6,8.9c0-0.3-0.1-0.6-0.2-0.8
		S99.2,7.6,99,7.5S98.6,7.1,98.3,7s-0.5-0.2-0.8-0.2h-1c-0.3,0-0.6,0.1-0.8,0.2s-0.5,0.3-0.7,0.4s-0.3,0.4-0.4,0.7s-0.2,0.5-0.2,0.8
		v1.8h5.1V8.9z"/>
	<path id="XMLID_29_" class="st0" d="M107.5,7.1c-0.3,0-0.6,0.1-0.8,0.2s-0.5,0.3-0.7,0.4s-0.3,0.4-0.4,0.7s-0.2,0.5-0.2,0.8v8.5
		h-1.4v-12h0.5l0.8,1.2c0.3-0.4,0.7-0.8,1.2-1.1s1-0.4,1.6-0.4h0.8v1.6H107.5z"/>
</g>
<path id="XMLID_124_" class="st1" d="M17,15.3c-0.3,0-0.5-0.2-0.7-0.4l-2-4c-0.2-0.4,0-0.8,0.3-1c0.4-0.2,0.8,0,1,0.3l1.2,2.4
	C18,9,20.7,1.9,23.8,1c0.4-0.1,0.8,0.1,0.9,0.5c0.1,0.4-0.1,0.8-0.5,0.9c-2.3,0.7-5.2,7.9-6.5,12.3C17.6,15,17.4,15.2,17,15.3
	C17,15.3,17,15.3,17,15.3z"/>
</svg>
