<?xml version="1.0" encoding="utf-8"?>
<!-- Generator: Adobe Illustrator 19.0.0, SVG Export Plug-In . SVG Version: 6.00 Build 0)  -->
<svg version="1.1" id="Layer_1" xmlns="http://www.w3.org/2000/svg" xmlns:xlink="http://www.w3.org/1999/xlink" x="0px" y="0px"
	 viewBox="0 0 64.5 59.3" style="enable-background:new 0 0 64.5 59.3;" xml:space="preserve">
<style type="text/css">
	.st0{fill:#6C6D6D;}
</style>
<path id="XMLID_258_" class="st0" d="M45.5,17.9H13.9c-1,0-1.8,0.8-1.8,1.8v19.9c0,1,0.8,1.8,1.8,1.8h31.6c1,0,1.8-0.8,1.8-1.8V19.7
	C47.3,18.7,46.5,17.9,45.5,17.9z M13.9,19.2h31.6c0.3,0,0.5,0.2,0.5,0.5v0.1L29.7,32.2L13.5,19.8v-0.1
	C13.5,19.4,13.7,19.2,13.9,19.2z M45.5,40.1H13.9c-0.3,0-0.5-0.2-0.5-0.5V21.5l15.8,12.1c0,0,0.1,0,0.1,0c0,0,0,0,0.1,0
	c0.1,0,0.2,0.1,0.3,0.1h0h0c0.1,0,0.2,0,0.3-0.1c0,0,0,0,0.1,0c0,0,0.1,0,0.1,0L46,21.5v18.1C46,39.9,45.7,40.1,45.5,40.1z"/>
</svg>
