<?xml version="1.0" encoding="utf-8"?>
<!-- Generator: Adobe Illustrator 19.0.0, SVG Export Plug-In . SVG Version: 6.00 Build 0)  -->
<svg version="1.1" id="Layer_1" xmlns="http://www.w3.org/2000/svg" xmlns:xlink="http://www.w3.org/1999/xlink" x="0px" y="0px"
	 viewBox="0 0 64.5 59.3" style="enable-background:new 0 0 64.5 59.3;" xml:space="preserve">
<style type="text/css">
	.st0{opacity:0.5;fill:#FFFFFF;}
</style>
<path id="XMLID_69_" class="st0" d="M46.1,38.8l-8.5-5c-0.5-0.3-0.8-0.8-0.8-1.4V32c0-0.2,0-0.3,0.1-0.5H43c0.4,0,0.7-0.2,0.8-0.5
	c0.1-0.3,0.1-0.7-0.2-1c-0.5-0.6-1.8-2.6-2.3-8.9v-2.9c0-0.7-0.1-1.4-0.3-2c0,0,0,0,0-0.1c-0.7-2.5-2.8-4.2-5.9-5
	c-0.9-0.2-1.9-0.4-2.8-0.4c-0.9,0-1.9,0.1-2.8,0.4c-3,0.8-5.1,2.5-5.9,4.9c-0.1,0.1-0.1,0.2-0.1,0.3c-0.2,0.6-0.2,1.2-0.2,1.9v2.7
	c-0.6,6.5-1.8,8.5-2.4,9.1c-0.2,0.3-0.3,0.6-0.2,1c0.1,0.3,0.5,0.5,0.8,0.5h6.1c0,0.2,0.1,0.3,0.1,0.5v0.3c0,0.6-0.3,1.1-0.8,1.4
	l-8.5,4.9c-0.9,0.5-1.5,1.5-1.5,2.6v3.1c0,0.7,0.6,1.3,1.3,1.3h28.2c0.7,0,1.3-0.6,1.3-1.3l0-3C47.6,40.4,47.1,39.3,46.1,38.8z
	 M46.2,44.3h-28v-3c0-0.6,0.3-1.1,0.8-1.4l8.5-4.9c0.9-0.5,1.5-1.5,1.5-2.6V32c0-0.5-0.2-1.1-0.4-1.6c-0.2-0.3-0.5-0.4-0.9-0.3l0,0
	h-5.4c0.8-1.4,1.7-4,2.2-9.2c0,0,0,0,0-0.1v-2.7c0-0.6,0.1-1.1,0.2-1.6c0,0,0,0,0,0c0,0,0,0,0,0c0.7-2.6,3.1-3.7,5-4.1
	c0.8-0.2,1.7-0.3,2.5-0.3c0.8,0,1.7,0.1,2.5,0.3c1.9,0.5,4.2,1.6,4.9,4.1c0,0,0,0,0,0c0.2,0.5,0.2,1.1,0.2,1.7v2.9c0,0,0,0,0,0.1
	c0.4,5,1.3,7.6,2.1,9l-5.7,0c-0.2,0-0.5,0.1-0.6,0.3c-0.3,0.5-0.4,1-0.4,1.5v0.3c0,1.1,0.6,2.1,1.5,2.6l8.5,5
	c0.5,0.3,0.8,0.9,0.8,1.4L46.2,44.3z"/>
<path id="XMLID_113_" class="st0" d="M46.1,38.8l-8.5-5c-0.5-0.3-0.8-0.8-0.8-1.4V32c0-0.5,0.3-1,0.7-1.4c2.4-1.7,3.8-4.4,3.8-7.4
	v-5.1c0-3.5-2.3-6.1-6.2-7.1c-0.9-0.2-1.9-0.4-2.8-0.4c-0.9,0-1.9,0.1-2.8,0.4c-3.9,1-6.2,3.6-6.2,7.1v5.1c0,2.9,1.4,5.7,3.8,7.4
	c0.4,0.3,0.7,0.8,0.7,1.4v0.3c0,0.6-0.3,1.1-0.8,1.4l-8.5,4.9c-0.9,0.5-1.5,1.5-1.5,2.6v3.1c0,0.7,0.6,1.3,1.3,1.3h28.2
	c0.7,0,1.3-0.6,1.3-1.3l0-3C47.6,40.4,47.1,39.3,46.1,38.8z M46.2,44.3h-28v-3c0-0.6,0.3-1.1,0.8-1.4l8.5-4.9
	c0.9-0.5,1.5-1.5,1.5-2.6V32c0-1-0.5-1.9-1.3-2.5c-2-1.4-3.2-3.8-3.2-6.2v-5.1c0-3.9,3.2-5.3,5.2-5.8c0.8-0.2,1.7-0.3,2.5-0.3
	c0.8,0,1.7,0.1,2.5,0.3c1.9,0.5,5.2,1.9,5.2,5.8v5.1c0,2.5-1.2,4.8-3.2,6.2c-0.8,0.6-1.3,1.5-1.3,2.5v0.3c0,1.1,0.6,2.1,1.5,2.6
	l8.5,5c0.5,0.3,0.8,0.9,0.8,1.4L46.2,44.3z"/>
</svg>
